<svg class="rich-terminal" viewBox="0 0 1482 928.4" xmlns="http://www.w3.org/2000/svg">
    <!-- Generated with Rich https://www.textualize.io -->
    <style>

    @font-face {
        font-family: "Fira Code";
        src: local("FiraCode-Regular"),
                url("https://cdnjs.cloudflare.com/ajax/libs/firacode/6.2.0/woff2/FiraCode-Regular.woff2") format("woff2"),
                url("https://cdnjs.cloudflare.com/ajax/libs/firacode/6.2.0/woff/FiraCode-Regular.woff") format("woff");
        font-style: normal;
        font-weight: 400;
    }
    @font-face {
        font-family: "Fira Code";
        src: local("FiraCode-Bold"),
                url("https://cdnjs.cloudflare.com/ajax/libs/firacode/6.2.0/woff2/FiraCode-Bold.woff2") format("woff2"),
                url("https://cdnjs.cloudflare.com/ajax/libs/firacode/6.2.0/woff/FiraCode-Bold.woff") format("woff");
        font-style: bold;
        font-weight: 700;
    }

    .terminal-1748476148-matrix {
        font-family: Fira Code, monospace;
        font-size: 20px;
        line-height: 24.4px;
        font-variant-east-asian: full-width;
    }

    .terminal-1748476148-title {
        font-size: 18px;
        font-weight: bold;
        font-family: arial;
    }

    .terminal-1748476148-r1 { fill: #c5c8c6 }
.terminal-1748476148-r2 { fill: #e0e0e0 }
.terminal-1748476148-r3 { fill: #00d7ff;font-weight: bold }
.terminal-1748476148-r4 { fill: #666666 }
.terminal-1748476148-r5 { fill: #e0e0e0;font-weight: bold }
.terminal-1748476148-r6 { fill: #00d7ff }
.terminal-1748476148-r7 { fill: #b5bd68;font-weight: bold }
.terminal-1748476148-r8 { fill: #b5bd68 }
.terminal-1748476148-r9 { fill: #b294bb;font-weight: bold }
.terminal-1748476148-r10 { fill: #b294bb }
.terminal-1748476148-r11 { fill: #5f87ff }
.terminal-1748476148-r12 { fill: #1a2535 }
.terminal-1748476148-r13 { fill: #0178d4 }
.terminal-1748476148-r14 { fill: #121212 }
.terminal-1748476148-r15 { fill: #797979 }
.terminal-1748476148-r16 { fill: #808080 }
    </style>

    <defs>
    <clipPath id="terminal-1748476148-clip-terminal">
      <rect x="0" y="0" width="1463.0" height="877.4" />
    </clipPath>
    <clipPath id="terminal-1748476148-line-0">
    <rect x="0" y="1.5" width="1464" height="24.65"/>
            </clipPath>
<clipPath id="terminal-1748476148-line-1">
    <rect x="0" y="25.9" width="1464" height="24.65"/>
            </clipPath>
<clipPath id="terminal-1748476148-line-2">
    <rect x="0" y="50.3" width="1464" height="24.65"/>
            </clipPath>
<clipPath id="terminal-1748476148-line-3">
    <rect x="0" y="74.7" width="1464" height="24.65"/>
            </clipPath>
<clipPath id="terminal-1748476148-line-4">
    <rect x="0" y="99.1" width="1464" height="24.65"/>
            </clipPath>
<clipPath id="terminal-1748476148-line-5">
    <rect x="0" y="123.5" width="1464" height="24.65"/>
            </clipPath>
<clipPath id="terminal-1748476148-line-6">
    <rect x="0" y="147.9" width="1464" height="24.65"/>
            </clipPath>
<clipPath id="terminal-1748476148-line-7">
    <rect x="0" y="172.3" width="1464" height="24.65"/>
            </clipPath>
<clipPath id="terminal-1748476148-line-8">
    <rect x="0" y="196.7" width="1464" height="24.65"/>
            </clipPath>
<clipPath id="terminal-1748476148-line-9">
    <rect x="0" y="221.1" width="1464" height="24.65"/>
            </clipPath>
<clipPath id="terminal-1748476148-line-10">
    <rect x="0" y="245.5" width="1464" height="24.65"/>
            </clipPath>
<clipPath id="terminal-1748476148-line-11">
    <rect x="0" y="269.9" width="1464" height="24.65"/>
            </clipPath>
<clipPath id="terminal-1748476148-line-12">
    <rect x="0" y="294.3" width="1464" height="24.65"/>
            </clipPath>
<clipPath id="terminal-1748476148-line-13">
    <rect x="0" y="318.7" width="1464" height="24.65"/>
            </clipPath>
<clipPath id="terminal-1748476148-line-14">
    <rect x="0" y="343.1" width="1464" height="24.65"/>
            </clipPath>
<clipPath id="terminal-1748476148-line-15">
    <rect x="0" y="367.5" width="1464" height="24.65"/>
            </clipPath>
<clipPath id="terminal-1748476148-line-16">
    <rect x="0" y="391.9" width="1464" height="24.65"/>
            </clipPath>
<clipPath id="terminal-1748476148-line-17">
    <rect x="0" y="416.3" width="1464" height="24.65"/>
            </clipPath>
<clipPath id="terminal-1748476148-line-18">
    <rect x="0" y="440.7" width="1464" height="24.65"/>
            </clipPath>
<clipPath id="terminal-1748476148-line-19">
    <rect x="0" y="465.1" width="1464" height="24.65"/>
            </clipPath>
<clipPath id="terminal-1748476148-line-20">
    <rect x="0" y="489.5" width="1464" height="24.65"/>
            </clipPath>
<clipPath id="terminal-1748476148-line-21">
    <rect x="0" y="513.9" width="1464" height="24.65"/>
            </clipPath>
<clipPath id="terminal-1748476148-line-22">
    <rect x="0" y="538.3" width="1464" height="24.65"/>
            </clipPath>
<clipPath id="terminal-1748476148-line-23">
    <rect x="0" y="562.7" width="1464" height="24.65"/>
            </clipPath>
<clipPath id="terminal-1748476148-line-24">
    <rect x="0" y="587.1" width="1464" height="24.65"/>
            </clipPath>
<clipPath id="terminal-1748476148-line-25">
    <rect x="0" y="611.5" width="1464" height="24.65"/>
            </clipPath>
<clipPath id="terminal-1748476148-line-26">
    <rect x="0" y="635.9" width="1464" height="24.65"/>
            </clipPath>
<clipPath id="terminal-1748476148-line-27">
    <rect x="0" y="660.3" width="1464" height="24.65"/>
            </clipPath>
<clipPath id="terminal-1748476148-line-28">
    <rect x="0" y="684.7" width="1464" height="24.65"/>
            </clipPath>
<clipPath id="terminal-1748476148-line-29">
    <rect x="0" y="709.1" width="1464" height="24.65"/>
            </clipPath>
<clipPath id="terminal-1748476148-line-30">
    <rect x="0" y="733.5" width="1464" height="24.65"/>
            </clipPath>
<clipPath id="terminal-1748476148-line-31">
    <rect x="0" y="757.9" width="1464" height="24.65"/>
            </clipPath>
<clipPath id="terminal-1748476148-line-32">
    <rect x="0" y="782.3" width="1464" height="24.65"/>
            </clipPath>
<clipPath id="terminal-1748476148-line-33">
    <rect x="0" y="806.7" width="1464" height="24.65"/>
            </clipPath>
<clipPath id="terminal-1748476148-line-34">
    <rect x="0" y="831.1" width="1464" height="24.65"/>
            </clipPath>
    </defs>

    <rect fill="#292929" stroke="rgba(255,255,255,0.35)" stroke-width="1" x="1" y="1" width="1480" height="926.4" rx="8"/><text class="terminal-1748476148-title" fill="#c5c8c6" text-anchor="middle" x="740" y="27">Pythia</text>
            <g transform="translate(26,22)">
            <circle cx="0" cy="0" r="7" fill="#ff5f57"/>
            <circle cx="22" cy="0" r="7" fill="#febc2e"/>
            <circle cx="44" cy="0" r="7" fill="#28c840"/>
            </g>
        
    <g transform="translate(9, 41)" clip-path="url(#terminal-1748476148-clip-terminal)">
    <rect fill="#2a2a3a" x="0" y="1.5" width="24.4" height="24.65" shape-rendering="crispEdges"/><rect fill="#2a2a3a" x="24.4" y="1.5" width="0" height="24.65" shape-rendering="crispEdges"/><rect fill="#2a2a3a" x="24.4" y="1.5" width="1415.2" height="24.65" shape-rendering="crispEdges"/><rect fill="#2a2a3a" x="1439.6" y="1.5" width="24.4" height="24.65" shape-rendering="crispEdges"/><rect fill="#1e1e2e" x="0" y="25.9" width="12.2" height="24.65" shape-rendering="crispEdges"/><rect fill="#1e1e2e" x="12.2" y="25.9" width="48.8" height="24.65" shape-rendering="crispEdges"/><rect fill="#1e1e2e" x="61" y="25.9" width="109.8" height="24.65" shape-rendering="crispEdges"/><rect fill="#1e1e2e" x="170.8" y="25.9" width="671" height="24.65" shape-rendering="crispEdges"/><rect fill="#1e1e2e" x="841.8" y="25.9" width="610" height="24.65" shape-rendering="crispEdges"/><rect fill="#1e1e2e" x="1451.8" y="25.9" width="12.2" height="24.65" shape-rendering="crispEdges"/><rect fill="#1e1e2e" x="0" y="50.3" width="12.2" height="24.65" shape-rendering="crispEdges"/><rect fill="#1e1e2e" x="12.2" y="50.3" width="329.4" height="24.65" shape-rendering="crispEdges"/><rect fill="#1e1e2e" x="341.6" y="50.3" width="85.4" height="24.65" shape-rendering="crispEdges"/><rect fill="#1e1e2e" x="427" y="50.3" width="158.6" height="24.65" shape-rendering="crispEdges"/><rect fill="#1e1e2e" x="585.6" y="50.3" width="866.2" height="24.65" shape-rendering="crispEdges"/><rect fill="#1e1e2e" x="1451.8" y="50.3" width="12.2" height="24.65" shape-rendering="crispEdges"/><rect fill="#1e1e2e" x="0" y="74.7" width="12.2" height="24.65" shape-rendering="crispEdges"/><rect fill="#1e1e2e" x="12.2" y="74.7" width="0" height="24.65" shape-rendering="crispEdges"/><rect fill="#1e1e2e" x="12.2" y="74.7" width="1439.6" height="24.65" shape-rendering="crispEdges"/><rect fill="#1e1e2e" x="1451.8" y="74.7" width="12.2" height="24.65" shape-rendering="crispEdges"/><rect fill="#1e1e2e" x="0" y="99.1" width="12.2" height="24.65" shape-rendering="crispEdges"/><rect fill="#1e1e2e" x="12.2" y="99.1" width="48.8" height="24.65" shape-rendering="crispEdges"/><rect fill="#1e1e2e" x="61" y="99.1" width="109.8" height="24.65" shape-rendering="crispEdges"/><rect fill="#1e1e2e" x="170.8" y="99.1" width="463.6" height="24.65" shape-rendering="crispEdges"/><rect fill="#1e1e2e" x="634.4" y="99.1" width="817.4" height="24.65" shape-rendering="crispEdges"/><rect fill="#1e1e2e" x="1451.8" y="99.1" width="12.2" height="24.65" shape-rendering="crispEdges"/><rect fill="#1e1e2e" x="0" y="123.5" width="12.2" height="24.65" shape-rendering="crispEdges"/><rect fill="#1e1e2e" x="12.2" y="123.5" width="317.2" height="24.65" shape-rendering="crispEdges"/><rect fill="#1e1e2e" x="329.4" y="123.5" width="85.4" height="24.65" shape-rendering="crispEdges"/><rect fill="#1e1e2e" x="414.8" y="123.5" width="158.6" height="24.65" shape-rendering="crispEdges"/><rect fill="#1e1e2e" x="573.4" y="123.5" width="878.4" height="24.65" shape-rendering="crispEdges"/><rect fill="#1e1e2e" x="1451.8" y="123.5" width="12.2" height="24.65" shape-rendering="crispEdges"/><rect fill="#1e1e2e" x="0" y="147.9" width="12.2" height="24.65" shape-rendering="crispEdges"/><rect fill="#1e1e2e" x="12.2" y="147.9" width="0" height="24.65" shape-rendering="crispEdges"/><rect fill="#1e1e2e" x="12.2" y="147.9" width="1439.6" height="24.65" shape-rendering="crispEdges"/><rect fill="#1e1e2e" x="1451.8" y="147.9" width="12.2" height="24.65" shape-rendering="crispEdges"/><rect fill="#1e1e2e" x="0" y="172.3" width="12.2" height="24.65" shape-rendering="crispEdges"/><rect fill="#1e1e2e" x="12.2" y="172.3" width="48.8" height="24.65" shape-rendering="crispEdges"/><rect fill="#1e1e2e" x="61" y="172.3" width="109.8" height="24.65" shape-rendering="crispEdges"/><rect fill="#1e1e2e" x="170.8" y="172.3" width="451.4" height="24.65" shape-rendering="crispEdges"/><rect fill="#1e1e2e" x="622.2" y="172.3" width="829.6" height="24.65" shape-rendering="crispEdges"/><rect fill="#1e1e2e" x="1451.8" y="172.3" width="12.2" height="24.65" shape-rendering="crispEdges"/><rect fill="#1e1e2e" x="0" y="196.7" width="12.2" height="24.65" shape-rendering="crispEdges"/><rect fill="#1e1e2e" x="12.2" y="196.7" width="305" height="24.65" shape-rendering="crispEdges"/><rect fill="#1e1e2e" x="317.2" y="196.7" width="97.6" height="24.65" shape-rendering="crispEdges"/><rect fill="#1e1e2e" x="414.8" y="196.7" width="158.6" height="24.65" shape-rendering="crispEdges"/><rect fill="#1e1e2e" x="573.4" y="196.7" width="878.4" height="24.65" shape-rendering="crispEdges"/><rect fill="#1e1e2e" x="1451.8" y="196.7" width="12.2" height="24.65" shape-rendering="crispEdges"/><rect fill="#1e1e2e" x="0" y="221.1" width="12.2" height="24.65" shape-rendering="crispEdges"/><rect fill="#1e1e2e" x="12.2" y="221.1" width="0" height="24.65" shape-rendering="crispEdges"/><rect fill="#1e1e2e" x="12.2" y="221.1" width="1439.6" height="24.65" shape-rendering="crispEdges"/><rect fill="#1e1e2e" x="1451.8" y="221.1" width="12.2" height="24.65" shape-rendering="crispEdges"/><rect fill="#1e1e2e" x="0" y="245.5" width="12.2" height="24.65" shape-rendering="crispEdges"/><rect fill="#1e1e2e" x="12.2" y="245.5" width="48.8" height="24.65" shape-rendering="crispEdges"/><rect fill="#1e1e2e" x="61" y="245.5" width="109.8" height="24.65" shape-rendering="crispEdges"/><rect fill="#1e1e2e" x="170.8" y="245.5" width="573.4" height="24.65" shape-rendering="crispEdges"/><rect fill="#1e1e2e" x="744.2" y="245.5" width="707.6" height="24.65" shape-rendering="crispEdges"/><rect fill="#1e1e2e" x="1451.8" y="245.5" width="12.2" height="24.65" shape-rendering="crispEdges"/><rect fill="#1e1e2e" x="0" y="269.9" width="12.2" height="24.65" shape-rendering="crispEdges"/><rect fill="#1e1e2e" x="12.2" y="269.9" width="329.4" height="24.65" shape-rendering="crispEdges"/><rect fill="#1e1e2e" x="341.6" y="269.9" width="85.4" height="24.65" shape-rendering="crispEdges"/><rect fill="#1e1e2e" x="427" y="269.9" width="158.6" height="24.65" shape-rendering="crispEdges"/><rect fill="#1e1e2e" x="585.6" y="269.9" width="866.2" height="24.65" shape-rendering="crispEdges"/><rect fill="#1e1e2e" x="1451.8" y="269.9" width="12.2" height="24.65" shape-rendering="crispEdges"/><rect fill="#1e1e2e" x="0" y="294.3" width="12.2" height="24.65" shape-rendering="crispEdges"/><rect fill="#1e1e2e" x="12.2" y="294.3" width="0" height="24.65" shape-rendering="crispEdges"/><rect fill="#1e1e2e" x="12.2" y="294.3" width="1439.6" height="24.65" shape-rendering="crispEdges"/><rect fill="#1e1e2e" x="1451.8" y="294.3" width="12.2" height="24.65" shape-rendering="crispEdges"/><rect fill="#1e1e2e" x="0" y="318.7" width="12.2" height="24.65" shape-rendering="crispEdges"/><rect fill="#1e1e2e" x="12.2" y="318.7" width="48.8" height="24.65" shape-rendering="crispEdges"/><rect fill="#1e1e2e" x="61" y="318.7" width="109.8" height="24.65" shape-rendering="crispEdges"/><rect fill="#1e1e2e" x="170.8" y="318.7" width="585.6" height="24.65" shape-rendering="crispEdges"/><rect fill="#1e1e2e" x="756.4" y="318.7" width="695.4" height="24.65" shape-rendering="crispEdges"/><rect fill="#1e1e2e" x="1451.8" y="318.7" width="12.2" height="24.65" shape-rendering="crispEdges"/><rect fill="#1e1e2e" x="0" y="343.1" width="12.2" height="24.65" shape-rendering="crispEdges"/><rect fill="#1e1e2e" x="12.2" y="343.1" width="317.2" height="24.65" shape-rendering="crispEdges"/><rect fill="#1e1e2e" x="329.4" y="343.1" width="85.4" height="24.65" shape-rendering="crispEdges"/><rect fill="#1e1e2e" x="414.8" y="343.1" width="158.6" height="24.65" shape-rendering="crispEdges"/><rect fill="#1e1e2e" x="573.4" y="343.1" width="878.4" height="24.65" shape-rendering="crispEdges"/><rect fill="#1e1e2e" x="1451.8" y="343.1" width="12.2" height="24.65" shape-rendering="crispEdges"/><rect fill="#1e1e2e" x="0" y="367.5" width="12.2" height="24.65" shape-rendering="crispEdges"/><rect fill="#1e1e2e" x="12.2" y="367.5" width="0" height="24.65" shape-rendering="crispEdges"/><rect fill="#1e1e2e" x="12.2" y="367.5" width="1439.6" height="24.65" shape-rendering="crispEdges"/><rect fill="#1e1e2e" x="1451.8" y="367.5" width="12.2" height="24.65" shape-rendering="crispEdges"/><rect fill="#1e1e2e" x="0" y="391.9" width="12.2" height="24.65" shape-rendering="crispEdges"/><rect fill="#1e1e2e" x="12.2" y="391.9" width="48.8" height="24.65" shape-rendering="crispEdges"/><rect fill="#1e1e2e" x="61" y="391.9" width="109.8" height="24.65" shape-rendering="crispEdges"/><rect fill="#1e1e2e" x="170.8" y="391.9" width="622.2" height="24.65" shape-rendering="crispEdges"/><rect fill="#1e1e2e" x="793" y="391.9" width="658.8" height="24.65" shape-rendering="crispEdges"/><rect fill="#1e1e2e" x="1451.8" y="391.9" width="12.2" height="24.65" shape-rendering="crispEdges"/><rect fill="#1e1e2e" x="0" y="416.3" width="12.2" height="24.65" shape-rendering="crispEdges"/><rect fill="#1e1e2e" x="12.2" y="416.3" width="329.4" height="24.65" shape-rendering="crispEdges"/><rect fill="#1e1e2e" x="341.6" y="416.3" width="85.4" height="24.65" shape-rendering="crispEdges"/><rect fill="#1e1e2e" x="427" y="416.3" width="158.6" height="24.65" shape-rendering="crispEdges"/><rect fill="#1e1e2e" x="585.6" y="416.3" width="866.2" height="24.65" shape-rendering="crispEdges"/><rect fill="#1e1e2e" x="1451.8" y="416.3" width="12.2" height="24.65" shape-rendering="crispEdges"/><rect fill="#1e1e2e" x="0" y="440.7" width="12.2" height="24.65" shape-rendering="crispEdges"/><rect fill="#1e1e2e" x="12.2" y="440.7" width="0" height="24.65" shape-rendering="crispEdges"/><rect fill="#1e1e2e" x="12.2" y="440.7" width="1439.6" height="24.65" shape-rendering="crispEdges"/><rect fill="#1e1e2e" x="1451.8" y="440.7" width="12.2" height="24.65" shape-rendering="crispEdges"/><rect fill="#1e1e2e" x="0" y="465.1" width="12.2" height="24.65" shape-rendering="crispEdges"/><rect fill="#1e1e2e" x="12.2" y="465.1" width="48.8" height="24.65" shape-rendering="crispEdges"/><rect fill="#1e1e2e" x="61" y="465.1" width="109.8" height="24.65" shape-rendering="crispEdges"/><rect fill="#1e1e2e" x="170.8" y="465.1" width="439.2" height="24.65" shape-rendering="crispEdges"/><rect fill="#1e1e2e" x="610" y="465.1" width="841.8" height="24.65" shape-rendering="crispEdges"/><rect fill="#1e1e2e" x="1451.8" y="465.1" width="12.2" height="24.65" shape-rendering="crispEdges"/><rect fill="#1e1e2e" x="0" y="489.5" width="12.2" height="24.65" shape-rendering="crispEdges"/><rect fill="#1e1e2e" x="12.2" y="489.5" width="305" height="24.65" shape-rendering="crispEdges"/><rect fill="#1e1e2e" x="317.2" y="489.5" width="97.6" height="24.65" shape-rendering="crispEdges"/><rect fill="#1e1e2e" x="414.8" y="489.5" width="158.6" height="24.65" shape-rendering="crispEdges"/><rect fill="#1e1e2e" x="573.4" y="489.5" width="878.4" height="24.65" shape-rendering="crispEdges"/><rect fill="#1e1e2e" x="1451.8" y="489.5" width="12.2" height="24.65" shape-rendering="crispEdges"/><rect fill="#1e1e2e" x="0" y="513.9" width="12.2" height="24.65" shape-rendering="crispEdges"/><rect fill="#1e1e2e" x="12.2" y="513.9" width="0" height="24.65" shape-rendering="crispEdges"/><rect fill="#1e1e2e" x="12.2" y="513.9" width="1439.6" height="24.65" shape-rendering="crispEdges"/><rect fill="#1e1e2e" x="1451.8" y="513.9" width="12.2" height="24.65" shape-rendering="crispEdges"/><rect fill="#1e1e2e" x="0" y="538.3" width="12.2" height="24.65" shape-rendering="crispEdges"/><rect fill="#1e1e2e" x="12.2" y="538.3" width="48.8" height="24.65" shape-rendering="crispEdges"/><rect fill="#1e1e2e" x="61" y="538.3" width="109.8" height="24.65" shape-rendering="crispEdges"/><rect fill="#1e1e2e" x="170.8" y="538.3" width="451.4" height="24.65" shape-rendering="crispEdges"/><rect fill="#1e1e2e" x="622.2" y="538.3" width="829.6" height="24.65" shape-rendering="crispEdges"/><rect fill="#1e1e2e" x="1451.8" y="538.3" width="12.2" height="24.65" shape-rendering="crispEdges"/><rect fill="#1e1e2e" x="0" y="562.7" width="12.2" height="24.65" shape-rendering="crispEdges"/><rect fill="#1e1e2e" x="12.2" y="562.7" width="317.2" height="24.65" shape-rendering="crispEdges"/><rect fill="#1e1e2e" x="329.4" y="562.7" width="73.2" height="24.65" shape-rendering="crispEdges"/><rect fill="#1e1e2e" x="402.6" y="562.7" width="158.6" height="24.65" shape-rendering="crispEdges"/><rect fill="#1e1e2e" x="561.2" y="562.7" width="890.6" height="24.65" shape-rendering="crispEdges"/><rect fill="#1e1e2e" x="1451.8" y="562.7" width="12.2" height="24.65" shape-rendering="crispEdges"/><rect fill="#1e1e2e" x="0" y="587.1" width="12.2" height="24.65" shape-rendering="crispEdges"/><rect fill="#1e1e2e" x="12.2" y="587.1" width="0" height="24.65" shape-rendering="crispEdges"/><rect fill="#1e1e2e" x="12.2" y="587.1" width="1439.6" height="24.65" shape-rendering="crispEdges"/><rect fill="#1e1e2e" x="1451.8" y="587.1" width="12.2" height="24.65" shape-rendering="crispEdges"/><rect fill="#1e1e2e" x="0" y="611.5" width="12.2" height="24.65" shape-rendering="crispEdges"/><rect fill="#1e1e2e" x="12.2" y="611.5" width="0" height="24.65" shape-rendering="crispEdges"/><rect fill="#1e1e2e" x="12.2" y="611.5" width="1439.6" height="24.65" shape-rendering="crispEdges"/><rect fill="#1e1e2e" x="1451.8" y="611.5" width="12.2" height="24.65" shape-rendering="crispEdges"/><rect fill="#1e1e2e" x="0" y="635.9" width="12.2" height="24.65" shape-rendering="crispEdges"/><rect fill="#1e1e2e" x="12.2" y="635.9" width="1439.6" height="24.65" shape-rendering="crispEdges"/><rect fill="#1e1e2e" x="1451.8" y="635.9" width="12.2" height="24.65" shape-rendering="crispEdges"/><rect fill="#1e1e2e" x="0" y="660.3" width="12.2" height="24.65" shape-rendering="crispEdges"/><rect fill="#1e1e2e" x="12.2" y="660.3" width="1439.6" height="24.65" shape-rendering="crispEdges"/><rect fill="#1e1e2e" x="1451.8" y="660.3" width="12.2" height="24.65" shape-rendering="crispEdges"/><rect fill="#1e1e2e" x="0" y="684.7" width="12.2" height="24.65" shape-rendering="crispEdges"/><rect fill="#1e1e2e" x="12.2" y="684.7" width="1439.6" height="24.65" shape-rendering="crispEdges"/><rect fill="#1e1e2e" x="1451.8" y="684.7" width="12.2" height="24.65" shape-rendering="crispEdges"/><rect fill="#1e1e2e" x="0" y="709.1" width="12.2" height="24.65" shape-rendering="crispEdges"/><rect fill="#1e1e2e" x="12.2" y="709.1" width="1439.6" height="24.65" shape-rendering="crispEdges"/><rect fill="#1e1e2e" x="1451.8" y="709.1" width="12.2" height="24.65" shape-rendering="crispEdges"/><rect fill="#1e1e2e" x="0" y="733.5" width="12.2" height="24.65" shape-rendering="crispEdges"/><rect fill="#1e1e2e" x="12.2" y="733.5" width="1439.6" height="24.65" shape-rendering="crispEdges"/><rect fill="#1e1e2e" x="1451.8" y="733.5" width="12.2" height="24.65" shape-rendering="crispEdges"/><rect fill="#1a2535" x="0" y="757.9" width="1464" height="24.65" shape-rendering="crispEdges"/><rect fill="#1a2535" x="0" y="782.3" width="12.2" height="24.65" shape-rendering="crispEdges"/><rect fill="#0178d4" x="12.2" y="782.3" width="12.2" height="24.65" shape-rendering="crispEdges"/><rect fill="#272727" x="24.4" y="782.3" width="1415.2" height="24.65" shape-rendering="crispEdges"/><rect fill="#1a2535" x="1439.6" y="782.3" width="12.2" height="24.65" shape-rendering="crispEdges"/><rect fill="#1a2535" x="1451.8" y="782.3" width="12.2" height="24.65" shape-rendering="crispEdges"/><rect fill="#1a2535" x="0" y="806.7" width="12.2" height="24.65" shape-rendering="crispEdges"/><rect fill="#0178d4" x="12.2" y="806.7" width="12.2" height="24.65" shape-rendering="crispEdges"/><rect fill="#272727" x="24.4" y="806.7" width="24.4" height="24.65" shape-rendering="crispEdges"/><rect fill="#e0e0e0" x="48.8" y="806.7" width="12.2" height="24.65" shape-rendering="crispEdges"/><rect fill="#272727" x="61" y="806.7" width="292.8" height="24.65" shape-rendering="crispEdges"/><rect fill="#272727" x="353.8" y="806.7" width="1061.4" height="24.65" shape-rendering="crispEdges"/><rect fill="#272727" x="1415.2" y="806.7" width="24.4" height="24.65" shape-rendering="crispEdges"/><rect fill="#1a2535" x="1439.6" y="806.7" width="12.2" height="24.65" shape-rendering="crispEdges"/><rect fill="#1a2535" x="1451.8" y="806.7" width="12.2" height="24.65" shape-rendering="crispEdges"/><rect fill="#333345" x="0" y="831.1" width="24.4" height="24.65" shape-rendering="crispEdges"/><rect fill="#333345" x="24.4" y="831.1" width="134.2" height="24.65" shape-rendering="crispEdges"/><rect fill="#333345" x="158.6" y="831.1" width="256.2" height="24.65" shape-rendering="crispEdges"/><rect fill="#333345" x="414.8" y="831.1" width="134.2" height="24.65" shape-rendering="crispEdges"/><rect fill="#333345" x="549" y="831.1" width="890.6" height="24.65" shape-rendering="crispEdges"/><rect fill="#333345" x="1439.6" y="831.1" width="24.4" height="24.65" shape-rendering="crispEdges"/><rect fill="#333345" x="0" y="855.5" width="24.4" height="24.65" shape-rendering="crispEdges"/><rect fill="#333345" x="24.4" y="855.5" width="634.4" height="24.65" shape-rendering="crispEdges"/><rect fill="#333345" x="658.8" y="855.5" width="780.8" height="24.65" shape-rendering="crispEdges"/><rect fill="#333345" x="1439.6" y="855.5" width="24.4" height="24.65" shape-rendering="crispEdges"/>
    <g class="terminal-1748476148-matrix">
    <text class="terminal-1748476148-r1" x="1464" y="20" textLength="12.2" clip-path="url(#terminal-1748476148-line-0)">
</text><text class="terminal-1748476148-r3" x="12.2" y="44.4" textLength="48.8" clip-path="url(#terminal-1748476148-line-1)">&#160;&#160;○&#160;</text><text class="terminal-1748476148-r4" x="61" y="44.4" textLength="109.8" clip-path="url(#terminal-1748476148-line-1)">3:18&#160;PM&#160;&#160;</text><text class="terminal-1748476148-r5" x="170.8" y="44.4" textLength="671" clip-path="url(#terminal-1748476148-line-1)">▸&#160;How&#160;does&#160;Oracle&#160;AI&#160;Vector&#160;Search&#160;compare&#160;to&#160;pgvector?</text><text class="terminal-1748476148-r1" x="1464" y="44.4" textLength="12.2" clip-path="url(#terminal-1748476148-line-1)">
</text><text class="terminal-1748476148-r6" x="12.2" y="68.8" textLength="317.2" clip-path="url(#terminal-1748476148-line-2)">&#160;&#160;&#160;&#160;&#160;&#160;&#160;&#160;&#160;&#160;&#160;&#160;&#160;&#160;🔍&#160;web&#160;search</text><text class="terminal-1748476148-r4" x="341.6" y="68.8" textLength="85.4" clip-path="url(#terminal-1748476148-line-2)">&#160;·&#160;2.3s</text><text class="terminal-1748476148-r4" x="427" y="68.8" textLength="158.6" clip-path="url(#terminal-1748476148-line-2)">&#160;·&#160;qwen3.5:9b</text><text class="terminal-1748476148-r1" x="1464" y="68.8" textLength="12.2" clip-path="url(#terminal-1748476148-line-2)">
</text><text class="terminal-1748476148-r1" x="1464" y="93.2" textLength="12.2" clip-path="url(#terminal-1748476148-line-3)">
</text><text class="terminal-1748476148-r7" x="12.2" y="117.6" textLength="48.8" clip-path="url(#terminal-1748476148-line-4)">&#160;&#160;●&#160;</text><text class="terminal-1748476148-r4" x="61" y="117.6" textLength="109.8" clip-path="url(#terminal-1748476148-line-4)">3:15&#160;PM&#160;&#160;</text><text class="terminal-1748476148-r2" x="170.8" y="117.6" textLength="463.6" clip-path="url(#terminal-1748476148-line-4)">&#160;&#160;What&#160;is&#160;RLHF&#160;and&#160;why&#160;does&#160;it&#160;matter?</text><text class="terminal-1748476148-r1" x="1464" y="117.6" textLength="12.2" clip-path="url(#terminal-1748476148-line-4)">
</text><text class="terminal-1748476148-r8" x="12.2" y="142" textLength="305" clip-path="url(#terminal-1748476148-line-5)">&#160;&#160;&#160;&#160;&#160;&#160;&#160;&#160;&#160;&#160;&#160;&#160;&#160;&#160;⚡&#160;cache&#160;hit</text><text class="terminal-1748476148-r4" x="329.4" y="142" textLength="85.4" clip-path="url(#terminal-1748476148-line-5)">&#160;·&#160;18ms</text><text class="terminal-1748476148-r4" x="414.8" y="142" textLength="158.6" clip-path="url(#terminal-1748476148-line-5)">&#160;·&#160;qwen3.5:9b</text><text class="terminal-1748476148-r1" x="1464" y="142" textLength="12.2" clip-path="url(#terminal-1748476148-line-5)">
</text><text class="terminal-1748476148-r1" x="1464" y="166.4" textLength="12.2" clip-path="url(#terminal-1748476148-line-6)">
</text><text class="terminal-1748476148-r9" x="12.2" y="190.8" textLength="48.8" clip-path="url(#terminal-1748476148-line-7)">&#160;&#160;◈&#160;</text><text class="terminal-1748476148-r4" x="61" y="190.8" textLength="109.8" clip-path="url(#terminal-1748476148-line-7)">3:08&#160;PM&#160;&#160;</text><text class="terminal-1748476148-r2" x="170.8" y="190.8" textLength="451.4" clip-path="url(#terminal-1748476148-line-7)">&#160;&#160;RISC-V&#160;vs&#160;ARM&#160;for&#160;edge&#160;AI&#160;inference</text><text class="terminal-1748476148-r1" x="1464" y="190.8" textLength="12.2" clip-path="url(#terminal-1748476148-line-7)">
</text><text class="terminal-1748476148-r10" x="12.2" y="215.2" textLength="292.8" clip-path="url(#terminal-1748476148-line-8)">&#160;&#160;&#160;&#160;&#160;&#160;&#160;&#160;&#160;&#160;&#160;&#160;&#160;&#160;🔬&#160;research</text><text class="terminal-1748476148-r4" x="317.2" y="215.2" textLength="97.6" clip-path="url(#terminal-1748476148-line-8)">&#160;·&#160;14.2s</text><text class="terminal-1748476148-r4" x="414.8" y="215.2" textLength="158.6" clip-path="url(#terminal-1748476148-line-8)">&#160;·&#160;qwen3.5:9b</text><text class="terminal-1748476148-r1" x="1464" y="215.2" textLength="12.2" clip-path="url(#terminal-1748476148-line-8)">
</text><text class="terminal-1748476148-r1" x="1464" y="239.6" textLength="12.2" clip-path="url(#terminal-1748476148-line-9)">
</text><text class="terminal-1748476148-r3" x="12.2" y="264" textLength="48.8" clip-path="url(#terminal-1748476148-line-10)">&#160;&#160;○&#160;</text><text class="terminal-1748476148-r4" x="61" y="264" textLength="109.8" clip-path="url(#terminal-1748476148-line-10)">2:55&#160;PM&#160;&#160;</text><text class="terminal-1748476148-r2" x="170.8" y="264" textLength="573.4" clip-path="url(#terminal-1748476148-line-10)">&#160;&#160;Python&#160;asyncio&#160;vs&#160;threading&#160;for&#160;IO-bound&#160;work</text><text class="terminal-1748476148-r1" x="1464" y="264" textLength="12.2" clip-path="url(#terminal-1748476148-line-10)">
</text><text class="terminal-1748476148-r6" x="12.2" y="288.4" textLength="317.2" clip-path="url(#terminal-1748476148-line-11)">&#160;&#160;&#160;&#160;&#160;&#160;&#160;&#160;&#160;&#160;&#160;&#160;&#160;&#160;🔍&#160;web&#160;search</text><text class="terminal-1748476148-r4" x="341.6" y="288.4" textLength="85.4" clip-path="url(#terminal-1748476148-line-11)">&#160;·&#160;1.8s</text><text class="terminal-1748476148-r4" x="427" y="288.4" textLength="158.6" clip-path="url(#terminal-1748476148-line-11)">&#160;·&#160;qwen3.5:9b</text><text class="terminal-1748476148-r1" x="1464" y="288.4" textLength="12.2" clip-path="url(#terminal-1748476148-line-11)">
</text><text class="terminal-1748476148-r1" x="1464" y="312.8" textLength="12.2" clip-path="url(#terminal-1748476148-line-12)">
</text><text class="terminal-1748476148-r7" x="12.2" y="337.2" textLength="48.8" clip-path="url(#terminal-1748476148-line-13)">&#160;&#160;●&#160;</text><text class="terminal-1748476148-r4" x="61" y="337.2" textLength="109.8" clip-path="url(#terminal-1748476148-line-13)">2:41&#160;PM&#160;&#160;</text><text class="terminal-1748476148-r2" x="170.8" y="337.2" textLength="585.6" clip-path="url(#terminal-1748476148-line-13)">&#160;&#160;What&#160;is&#160;semantic&#160;caching&#160;and&#160;how&#160;does&#160;it&#160;work?</text><text class="terminal-1748476148-r1" x="1464" y="337.2" textLength="12.2" clip-path="url(#terminal-1748476148-line-13)">
</text><text class="terminal-1748476148-r8" x="12.2" y="361.6" textLength="305" clip-path="url(#terminal-1748476148-line-14)">&#160;&#160;&#160;&#160;&#160;&#160;&#160;&#160;&#160;&#160;&#160;&#160;&#160;&#160;⚡&#160;cache&#160;hit</text><text class="terminal-1748476148-r4" x="329.4" y="361.6" textLength="85.4" clip-path="url(#terminal-1748476148-line-14)">&#160;·&#160;12ms</text><text class="terminal-1748476148-r4" x="414.8" y="361.6" textLength="158.6" clip-path="url(#terminal-1748476148-line-14)">&#160;·&#160;qwen3.5:9b</text><text class="terminal-1748476148-r1" x="1464" y="361.6" textLength="12.2" clip-path="url(#terminal-1748476148-line-14)">
</text><text class="terminal-1748476148-r1" x="1464" y="386" textLength="12.2" clip-path="url(#terminal-1748476148-line-15)">
</text><text class="terminal-1748476148-r3" x="12.2" y="410.4" textLength="48.8" clip-path="url(#terminal-1748476148-line-16)">&#160;&#160;○&#160;</text><text class="terminal-1748476148-r4" x="61" y="410.4" textLength="109.8" clip-path="url(#terminal-1748476148-line-16)">2:30&#160;PM&#160;&#160;</text><text class="terminal-1748476148-r2" x="170.8" y="410.4" textLength="622.2" clip-path="url(#terminal-1748476148-line-16)">&#160;&#160;Textual&#160;framework&#160;best&#160;practices&#160;for&#160;complex&#160;TUIs</text><text class="terminal-1748476148-r1" x="1464" y="410.4" textLength="12.2" clip-path="url(#terminal-1748476148-line-16)">
</text><text class="terminal-1748476148-r6" x="12.2" y="434.8" textLength="317.2" clip-path="url(#terminal-1748476148-line-17)">&#160;&#160;&#160;&#160;&#160;&#160;&#160;&#160;&#160;&#160;&#160;&#160;&#160;&#160;🔍&#160;web&#160;search</text><text class="terminal-1748476148-r4" x="341.6" y="434.8" textLength="85.4" clip-path="url(#terminal-1748476148-line-17)">&#160;·&#160;3.1s</text><text class="terminal-1748476148-r4" x="427" y="434.8" textLength="158.6" clip-path="url(#terminal-1748476148-line-17)">&#160;·&#160;qwen3.5:9b</text><text class="terminal-1748476148-r1" x="1464" y="434.8" textLength="12.2" clip-path="url(#terminal-1748476148-line-17)">
</text><text class="terminal-1748476148-r1" x="1464" y="459.2" textLength="12.2" clip-path="url(#terminal-1748476148-line-18)">
</text><text class="terminal-1748476148-r9" x="12.2" y="483.6" textLength="48.8" clip-path="url(#terminal-1748476148-line-19)">&#160;&#160;◈&#160;</text><text class="terminal-1748476148-r4" x="61" y="483.6" textLength="109.8" clip-path="url(#terminal-1748476148-line-19)">1:45&#160;PM&#160;&#160;</text><text class="terminal-1748476148-r2" x="170.8" y="483.6" textLength="439.2" clip-path="url(#terminal-1748476148-line-19)">&#160;&#160;State&#160;of&#160;Rust&#160;async&#160;ecosystem&#160;2025</text><text class="terminal-1748476148-r1" x="1464" y="483.6" textLength="12.2" clip-path="url(#terminal-1748476148-line-19)">
</text><text class="terminal-1748476148-r10" x="12.2" y="508" textLength="292.8" clip-path="url(#terminal-1748476148-line-20)">&#160;&#160;&#160;&#160;&#160;&#160;&#160;&#160;&#160;&#160;&#160;&#160;&#160;&#160;🔬&#160;research</text><text class="terminal-1748476148-r4" x="317.2" y="508" textLength="97.6" clip-path="url(#terminal-1748476148-line-20)">&#160;·&#160;18.9s</text><text class="terminal-1748476148-r4" x="414.8" y="508" textLength="158.6" clip-path="url(#terminal-1748476148-line-20)">&#160;·&#160;qwen3.5:9b</text><text class="terminal-1748476148-r1" x="1464" y="508" textLength="12.2" clip-path="url(#terminal-1748476148-line-20)">
</text><text class="terminal-1748476148-r1" x="1464" y="532.4" textLength="12.2" clip-path="url(#terminal-1748476148-line-21)">
</text><text class="terminal-1748476148-r7" x="12.2" y="556.8" textLength="48.8" clip-path="url(#terminal-1748476148-line-22)">&#160;&#160;●&#160;</text><text class="terminal-1748476148-r4" x="61" y="556.8" textLength="109.8" clip-path="url(#terminal-1748476148-line-22)">1:20&#160;PM&#160;&#160;</text><text class="terminal-1748476148-r2" x="170.8" y="556.8" textLength="451.4" clip-path="url(#terminal-1748476148-line-22)">&#160;&#160;Oracle&#160;26ai&#160;Free&#160;Docker&#160;setup&#160;guide</text><text class="terminal-1748476148-r1" x="1464" y="556.8" textLength="12.2" clip-path="url(#terminal-1748476148-line-22)">
</text><text class="terminal-1748476148-r8" x="12.2" y="581.2" textLength="305" clip-path="url(#terminal-1748476148-line-23)">&#160;&#160;&#160;&#160;&#160;&#160;&#160;&#160;&#160;&#160;&#160;&#160;&#160;&#160;⚡&#160;cache&#160;hit</text><text class="terminal-1748476148-r4" x="329.4" y="581.2" textLength="73.2" clip-path="url(#terminal-1748476148-line-23)">&#160;·&#160;9ms</text><text class="terminal-1748476148-r4" x="402.6" y="581.2" textLength="158.6" clip-path="url(#terminal-1748476148-line-23)">&#160;·&#160;qwen3.5:9b</text><text class="terminal-1748476148-r1" x="1464" y="581.2" textLength="12.2" clip-path="url(#terminal-1748476148-line-23)">
</text><text class="terminal-1748476148-r1" x="1464" y="605.6" textLength="12.2" clip-path="url(#terminal-1748476148-line-24)">
</text><text class="terminal-1748476148-r1" x="1464" y="630" textLength="12.2" clip-path="url(#terminal-1748476148-line-25)">
</text><text class="terminal-1748476148-r1" x="1464" y="654.4" textLength="12.2" clip-path="url(#terminal-1748476148-line-26)">
</text><text class="terminal-1748476148-r1" x="1464" y="678.8" textLength="12.2" clip-path="url(#terminal-1748476148-line-27)">
</text><text class="terminal-1748476148-r1" x="1464" y="703.2" textLength="12.2" clip-path="url(#terminal-1748476148-line-28)">
</text><text class="terminal-1748476148-r1" x="1464" y="727.6" textLength="12.2" clip-path="url(#terminal-1748476148-line-29)">
</text><text class="terminal-1748476148-r1" x="1464" y="752" textLength="12.2" clip-path="url(#terminal-1748476148-line-30)">
</text><text class="terminal-1748476148-r11" x="0" y="776.4" textLength="1464" clip-path="url(#terminal-1748476148-line-31)">────────────────────────────────────────────────────────────────────────────────────────────────────────────────────────</text><text class="terminal-1748476148-r1" x="1464" y="776.4" textLength="12.2" clip-path="url(#terminal-1748476148-line-31)">
</text><text class="terminal-1748476148-r12" x="12.2" y="800.8" textLength="12.2" clip-path="url(#terminal-1748476148-line-32)">▊</text><text class="terminal-1748476148-r13" x="24.4" y="800.8" textLength="1415.2" clip-path="url(#terminal-1748476148-line-32)">▔▔▔▔▔▔▔▔▔▔▔▔▔▔▔▔▔▔▔▔▔▔▔▔▔▔▔▔▔▔▔▔▔▔▔▔▔▔▔▔▔▔▔▔▔▔▔▔▔▔▔▔▔▔▔▔▔▔▔▔▔▔▔▔▔▔▔▔▔▔▔▔▔▔▔▔▔▔▔▔▔▔▔▔▔▔▔▔▔▔▔▔▔▔▔▔▔▔▔▔▔▔▔▔▔▔▔▔▔▔▔▔▔▔▔▔</text><text class="terminal-1748476148-r13" x="1439.6" y="800.8" textLength="12.2" clip-path="url(#terminal-1748476148-line-32)">▎</text><text class="terminal-1748476148-r1" x="1464" y="800.8" textLength="12.2" clip-path="url(#terminal-1748476148-line-32)">
</text><text class="terminal-1748476148-r12" x="12.2" y="825.2" textLength="12.2" clip-path="url(#terminal-1748476148-line-33)">▊</text><text class="terminal-1748476148-r14" x="48.8" y="825.2" textLength="12.2" clip-path="url(#terminal-1748476148-line-33)">T</text><text class="terminal-1748476148-r15" x="61" y="825.2" textLength="292.8" clip-path="url(#terminal-1748476148-line-33)">ype&#160;to&#160;filter&#160;queries...</text><text class="terminal-1748476148-r13" x="1439.6" y="825.2" textLength="12.2" clip-path="url(#terminal-1748476148-line-33)">▎</text><text class="terminal-1748476148-r1" x="1464" y="825.2" textLength="12.2" clip-path="url(#terminal-1748476148-line-33)">
</text><text class="terminal-1748476148-r2" x="24.4" y="849.6" textLength="134.2" clip-path="url(#terminal-1748476148-line-34)">&#160;&#160;8&#160;queries</text><text class="terminal-1748476148-r8" x="158.6" y="849.6" textLength="256.2" clip-path="url(#terminal-1748476148-line-34)">&#160;·&#160;3&#160;cache&#160;hits&#160;(38%)</text><text class="terminal-1748476148-r4" x="414.8" y="849.6" textLength="134.2" clip-path="url(#terminal-1748476148-line-34)">&#160;·&#160;avg&#160;5.1s</text><text class="terminal-1748476148-r1" x="1464" y="849.6" textLength="12.2" clip-path="url(#terminal-1748476148-line-34)">
</text><text class="terminal-1748476148-r16" x="24.4" y="874" textLength="634.4" clip-path="url(#terminal-1748476148-line-35)">&#160;&#160;↑↓/jk&#160;Navigate&#160;&#160;Enter&#160;Re-run&#160;&#160;r&#160;Research&#160;&#160;/&#160;Filter</text>
    </g>
    </g>
</svg>
