<svg class="rich-terminal" viewBox="0 0 1482 928.4" xmlns="http://www.w3.org/2000/svg">
    <!-- Generated with Rich https://www.textualize.io -->
    <style>

    @font-face {
        font-family: "Fira Code";
        src: local("FiraCode-Regular"),
                url("https://cdnjs.cloudflare.com/ajax/libs/firacode/6.2.0/woff2/FiraCode-Regular.woff2") format("woff2"),
                url("https://cdnjs.cloudflare.com/ajax/libs/firacode/6.2.0/woff/FiraCode-Regular.woff") format("woff");
        font-style: normal;
        font-weight: 400;
    }
    @font-face {
        font-family: "Fira Code";
        src: local("FiraCode-Bold"),
                url("https://cdnjs.cloudflare.com/ajax/libs/firacode/6.2.0/woff2/FiraCode-Bold.woff2") format("woff2"),
                url("https://cdnjs.cloudflare.com/ajax/libs/firacode/6.2.0/woff/FiraCode-Bold.woff") format("woff");
        font-style: bold;
        font-weight: 700;
    }

    .terminal-2174389706-matrix {
        font-family: Fira Code, monospace;
        font-size: 20px;
        line-height: 24.4px;
        font-variant-east-asian: full-width;
    }

    .terminal-2174389706-title {
        font-size: 18px;
        font-weight: bold;
        font-family: arial;
    }

    .terminal-2174389706-r1 { fill: #c5c8c6 }
.terminal-2174389706-r2 { fill: #e0e0e0 }
.terminal-2174389706-r3 { fill: #00d7ff;font-weight: bold }
.terminal-2174389706-r4 { fill: #00c4ee;font-weight: bold }
.terminal-2174389706-r5 { fill: #00b1dd;font-weight: bold }
.terminal-2174389706-r6 { fill: #009ecc;font-weight: bold }
.terminal-2174389706-r7 { fill: #008bbb;font-weight: bold }
.terminal-2174389706-r8 { fill: #0078aa;font-weight: bold }
.terminal-2174389706-r9 { fill: #5f87ff }
.terminal-2174389706-r10 { fill: #e0e0e0;font-weight: bold }
.terminal-2174389706-r11 { fill: #58d1eb;font-weight: bold }
.terminal-2174389706-r12 { fill: #5f87ff;font-weight: bold }
.terminal-2174389706-r13 { fill: #003054 }
.terminal-2174389706-r14 { fill: #8abeb7;font-weight: bold }
.terminal-2174389706-r15 { fill: #1e1e2e }
.terminal-2174389706-r16 { fill: #666666 }
.terminal-2174389706-r17 { fill: #000000 }
.terminal-2174389706-r18 { fill: #121212 }
.terminal-2174389706-r19 { fill: #767d86 }
.terminal-2174389706-r20 { fill: #808080 }
.terminal-2174389706-r21 { fill: #b5bd68 }
.terminal-2174389706-r22 { fill: #8abeb7 }
    </style>

    <defs>
    <clipPath id="terminal-2174389706-clip-terminal">
      <rect x="0" y="0" width="1463.0" height="877.4" />
    </clipPath>
    <clipPath id="terminal-2174389706-line-0">
    <rect x="0" y="1.5" width="1464" height="24.65"/>
            </clipPath>
<clipPath id="terminal-2174389706-line-1">
    <rect x="0" y="25.9" width="1464" height="24.65"/>
            </clipPath>
<clipPath id="terminal-2174389706-line-2">
    <rect x="0" y="50.3" width="1464" height="24.65"/>
            </clipPath>
<clipPath id="terminal-2174389706-line-3">
    <rect x="0" y="74.7" width="1464" height="24.65"/>
            </clipPath>
<clipPath id="terminal-2174389706-line-4">
    <rect x="0" y="99.1" width="1464" height="24.65"/>
            </clipPath>
<clipPath id="terminal-2174389706-line-5">
    <rect x="0" y="123.5" width="1464" height="24.65"/>
            </clipPath>
<clipPath id="terminal-2174389706-line-6">
    <rect x="0" y="147.9" width="1464" height="24.65"/>
            </clipPath>
<clipPath id="terminal-2174389706-line-7">
    <rect x="0" y="172.3" width="1464" height="24.65"/>
            </clipPath>
<clipPath id="terminal-2174389706-line-8">
    <rect x="0" y="196.7" width="1464" height="24.65"/>
            </clipPath>
<clipPath id="terminal-2174389706-line-9">
    <rect x="0" y="221.1" width="1464" height="24.65"/>
            </clipPath>
<clipPath id="terminal-2174389706-line-10">
    <rect x="0" y="245.5" width="1464" height="24.65"/>
            </clipPath>
<clipPath id="terminal-2174389706-line-11">
    <rect x="0" y="269.9" width="1464" height="24.65"/>
            </clipPath>
<clipPath id="terminal-2174389706-line-12">
    <rect x="0" y="294.3" width="1464" height="24.65"/>
            </clipPath>
<clipPath id="terminal-2174389706-line-13">
    <rect x="0" y="318.7" width="1464" height="24.65"/>
            </clipPath>
<clipPath id="terminal-2174389706-line-14">
    <rect x="0" y="343.1" width="1464" height="24.65"/>
            </clipPath>
<clipPath id="terminal-2174389706-line-15">
    <rect x="0" y="367.5" width="1464" height="24.65"/>
            </clipPath>
<clipPath id="terminal-2174389706-line-16">
    <rect x="0" y="391.9" width="1464" height="24.65"/>
            </clipPath>
<clipPath id="terminal-2174389706-line-17">
    <rect x="0" y="416.3" width="1464" height="24.65"/>
            </clipPath>
<clipPath id="terminal-2174389706-line-18">
    <rect x="0" y="440.7" width="1464" height="24.65"/>
            </clipPath>
<clipPath id="terminal-2174389706-line-19">
    <rect x="0" y="465.1" width="1464" height="24.65"/>
            </clipPath>
<clipPath id="terminal-2174389706-line-20">
    <rect x="0" y="489.5" width="1464" height="24.65"/>
            </clipPath>
<clipPath id="terminal-2174389706-line-21">
    <rect x="0" y="513.9" width="1464" height="24.65"/>
            </clipPath>
<clipPath id="terminal-2174389706-line-22">
    <rect x="0" y="538.3" width="1464" height="24.65"/>
            </clipPath>
<clipPath id="terminal-2174389706-line-23">
    <rect x="0" y="562.7" width="1464" height="24.65"/>
            </clipPath>
<clipPath id="terminal-2174389706-line-24">
    <rect x="0" y="587.1" width="1464" height="24.65"/>
            </clipPath>
<clipPath id="terminal-2174389706-line-25">
    <rect x="0" y="611.5" width="1464" height="24.65"/>
            </clipPath>
<clipPath id="terminal-2174389706-line-26">
    <rect x="0" y="635.9" width="1464" height="24.65"/>
            </clipPath>
<clipPath id="terminal-2174389706-line-27">
    <rect x="0" y="660.3" width="1464" height="24.65"/>
            </clipPath>
<clipPath id="terminal-2174389706-line-28">
    <rect x="0" y="684.7" width="1464" height="24.65"/>
            </clipPath>
<clipPath id="terminal-2174389706-line-29">
    <rect x="0" y="709.1" width="1464" height="24.65"/>
            </clipPath>
<clipPath id="terminal-2174389706-line-30">
    <rect x="0" y="733.5" width="1464" height="24.65"/>
            </clipPath>
<clipPath id="terminal-2174389706-line-31">
    <rect x="0" y="757.9" width="1464" height="24.65"/>
            </clipPath>
<clipPath id="terminal-2174389706-line-32">
    <rect x="0" y="782.3" width="1464" height="24.65"/>
            </clipPath>
<clipPath id="terminal-2174389706-line-33">
    <rect x="0" y="806.7" width="1464" height="24.65"/>
            </clipPath>
<clipPath id="terminal-2174389706-line-34">
    <rect x="0" y="831.1" width="1464" height="24.65"/>
            </clipPath>
    </defs>

    <rect fill="#292929" stroke="rgba(255,255,255,0.35)" stroke-width="1" x="1" y="1" width="1480" height="926.4" rx="8"/><text class="terminal-2174389706-title" fill="#c5c8c6" text-anchor="middle" x="740" y="27">Pythia</text>
            <g transform="translate(26,22)">
            <circle cx="0" cy="0" r="7" fill="#ff5f57"/>
            <circle cx="22" cy="0" r="7" fill="#febc2e"/>
            <circle cx="44" cy="0" r="7" fill="#28c840"/>
            </g>
        
    <g transform="translate(9, 41)" clip-path="url(#terminal-2174389706-clip-terminal)">
    <rect fill="#1e1e2e" x="0" y="1.5" width="1464" height="24.65" shape-rendering="crispEdges"/><rect fill="#1e1e2e" x="0" y="25.9" width="439.2" height="24.65" shape-rendering="crispEdges"/><rect fill="#1e1e2e" x="439.2" y="25.9" width="585.6" height="24.65" shape-rendering="crispEdges"/><rect fill="#1e1e2e" x="1024.8" y="25.9" width="439.2" height="24.65" shape-rendering="crispEdges"/><rect fill="#1e1e2e" x="0" y="50.3" width="439.2" height="24.65" shape-rendering="crispEdges"/><rect fill="#1e1e2e" x="439.2" y="50.3" width="585.6" height="24.65" shape-rendering="crispEdges"/><rect fill="#1e1e2e" x="1024.8" y="50.3" width="439.2" height="24.65" shape-rendering="crispEdges"/><rect fill="#1e1e2e" x="0" y="74.7" width="439.2" height="24.65" shape-rendering="crispEdges"/><rect fill="#1e1e2e" x="439.2" y="74.7" width="585.6" height="24.65" shape-rendering="crispEdges"/><rect fill="#1e1e2e" x="1024.8" y="74.7" width="439.2" height="24.65" shape-rendering="crispEdges"/><rect fill="#1e1e2e" x="0" y="99.1" width="439.2" height="24.65" shape-rendering="crispEdges"/><rect fill="#1e1e2e" x="439.2" y="99.1" width="585.6" height="24.65" shape-rendering="crispEdges"/><rect fill="#1e1e2e" x="1024.8" y="99.1" width="439.2" height="24.65" shape-rendering="crispEdges"/><rect fill="#1e1e2e" x="0" y="123.5" width="439.2" height="24.65" shape-rendering="crispEdges"/><rect fill="#1e1e2e" x="439.2" y="123.5" width="585.6" height="24.65" shape-rendering="crispEdges"/><rect fill="#1e1e2e" x="1024.8" y="123.5" width="439.2" height="24.65" shape-rendering="crispEdges"/><rect fill="#1e1e2e" x="0" y="147.9" width="439.2" height="24.65" shape-rendering="crispEdges"/><rect fill="#1e1e2e" x="439.2" y="147.9" width="585.6" height="24.65" shape-rendering="crispEdges"/><rect fill="#1e1e2e" x="1024.8" y="147.9" width="439.2" height="24.65" shape-rendering="crispEdges"/><rect fill="#1e1e2e" x="0" y="172.3" width="439.2" height="24.65" shape-rendering="crispEdges"/><rect fill="#1e1e2e" x="439.2" y="172.3" width="0" height="24.65" shape-rendering="crispEdges"/><rect fill="#1e1e2e" x="439.2" y="172.3" width="1024.8" height="24.65" shape-rendering="crispEdges"/><rect fill="#1e1e2e" x="0" y="196.7" width="439.2" height="24.65" shape-rendering="crispEdges"/><rect fill="#1e1e2e" x="439.2" y="196.7" width="244" height="24.65" shape-rendering="crispEdges"/><rect fill="#1e1e2e" x="683.2" y="196.7" width="780.8" height="24.65" shape-rendering="crispEdges"/><rect fill="#1e1e2e" x="0" y="221.1" width="439.2" height="24.65" shape-rendering="crispEdges"/><rect fill="#1e1e2e" x="439.2" y="221.1" width="0" height="24.65" shape-rendering="crispEdges"/><rect fill="#1e1e2e" x="439.2" y="221.1" width="1024.8" height="24.65" shape-rendering="crispEdges"/><rect fill="#1e1e2e" x="0" y="245.5" width="1464" height="24.65" shape-rendering="crispEdges"/><rect fill="#1e1e2e" x="0" y="269.9" width="1464" height="24.65" shape-rendering="crispEdges"/><rect fill="#1e1e2e" x="0" y="294.3" width="12.2" height="24.65" shape-rendering="crispEdges"/><rect fill="#1e1e2e" x="12.2" y="294.3" width="1439.6" height="24.65" shape-rendering="crispEdges"/><rect fill="#1e1e2e" x="1451.8" y="294.3" width="12.2" height="24.65" shape-rendering="crispEdges"/><rect fill="#1e1e2e" x="0" y="318.7" width="12.2" height="24.65" shape-rendering="crispEdges"/><rect fill="#1e1e2e" x="12.2" y="318.7" width="1439.6" height="24.65" shape-rendering="crispEdges"/><rect fill="#1e1e2e" x="1451.8" y="318.7" width="12.2" height="24.65" shape-rendering="crispEdges"/><rect fill="#1e1e2e" x="0" y="343.1" width="12.2" height="24.65" shape-rendering="crispEdges"/><rect fill="#1e1e2e" x="12.2" y="343.1" width="24.4" height="24.65" shape-rendering="crispEdges"/><rect fill="#1e1e2e" x="36.6" y="343.1" width="12.2" height="24.65" shape-rendering="crispEdges"/><rect fill="#1e1e2e" x="48.8" y="343.1" width="97.6" height="24.65" shape-rendering="crispEdges"/><rect fill="#1e1e2e" x="146.4" y="343.1" width="1244.4" height="24.65" shape-rendering="crispEdges"/><rect fill="#1e1e2e" x="1390.8" y="343.1" width="12.2" height="24.65" shape-rendering="crispEdges"/><rect fill="#000000" x="1403" y="343.1" width="24.4" height="24.65" shape-rendering="crispEdges"/><rect fill="#1e1e2e" x="1427.4" y="343.1" width="24.4" height="24.65" shape-rendering="crispEdges"/><rect fill="#1e1e2e" x="1451.8" y="343.1" width="12.2" height="24.65" shape-rendering="crispEdges"/><rect fill="#1e1e2e" x="0" y="367.5" width="12.2" height="24.65" shape-rendering="crispEdges"/><rect fill="#1e1e2e" x="12.2" y="367.5" width="24.4" height="24.65" shape-rendering="crispEdges"/><rect fill="#1e1e2e" x="36.6" y="367.5" width="12.2" height="24.65" shape-rendering="crispEdges"/><rect fill="#1e1e2e" x="48.8" y="367.5" width="1342" height="24.65" shape-rendering="crispEdges"/><rect fill="#1e1e2e" x="1390.8" y="367.5" width="12.2" height="24.65" shape-rendering="crispEdges"/><rect fill="#000000" x="1403" y="367.5" width="24.4" height="24.65" shape-rendering="crispEdges"/><rect fill="#1e1e2e" x="1427.4" y="367.5" width="24.4" height="24.65" shape-rendering="crispEdges"/><rect fill="#1e1e2e" x="1451.8" y="367.5" width="12.2" height="24.65" shape-rendering="crispEdges"/><rect fill="#1e1e2e" x="0" y="391.9" width="12.2" height="24.65" shape-rendering="crispEdges"/><rect fill="#1e1e2e" x="12.2" y="391.9" width="24.4" height="24.65" shape-rendering="crispEdges"/><rect fill="#1e1e2e" x="36.6" y="391.9" width="12.2" height="24.65" shape-rendering="crispEdges"/><rect fill="#1e1e2e" x="48.8" y="391.9" width="1342" height="24.65" shape-rendering="crispEdges"/><rect fill="#1e1e2e" x="1390.8" y="391.9" width="12.2" height="24.65" shape-rendering="crispEdges"/><rect fill="#000000" x="1403" y="391.9" width="24.4" height="24.65" shape-rendering="crispEdges"/><rect fill="#1e1e2e" x="1427.4" y="391.9" width="24.4" height="24.65" shape-rendering="crispEdges"/><rect fill="#1e1e2e" x="1451.8" y="391.9" width="12.2" height="24.65" shape-rendering="crispEdges"/><rect fill="#1e1e2e" x="0" y="416.3" width="12.2" height="24.65" shape-rendering="crispEdges"/><rect fill="#1e1e2e" x="12.2" y="416.3" width="24.4" height="24.65" shape-rendering="crispEdges"/><rect fill="#1e1e2e" x="36.6" y="416.3" width="12.2" height="24.65" shape-rendering="crispEdges"/><rect fill="#1e1e2e" x="48.8" y="416.3" width="1342" height="24.65" shape-rendering="crispEdges"/><rect fill="#1e1e2e" x="1390.8" y="416.3" width="12.2" height="24.65" shape-rendering="crispEdges"/><rect fill="#000000" x="1403" y="416.3" width="24.4" height="24.65" shape-rendering="crispEdges"/><rect fill="#1e1e2e" x="1427.4" y="416.3" width="24.4" height="24.65" shape-rendering="crispEdges"/><rect fill="#1e1e2e" x="1451.8" y="416.3" width="12.2" height="24.65" shape-rendering="crispEdges"/><rect fill="#1e1e2e" x="0" y="440.7" width="12.2" height="24.65" shape-rendering="crispEdges"/><rect fill="#1e1e2e" x="12.2" y="440.7" width="24.4" height="24.65" shape-rendering="crispEdges"/><rect fill="#1e1e2e" x="36.6" y="440.7" width="12.2" height="24.65" shape-rendering="crispEdges"/><rect fill="#1e1e2e" x="48.8" y="440.7" width="963.8" height="24.65" shape-rendering="crispEdges"/><rect fill="#1a1a1a" x="1012.6" y="440.7" width="353.8" height="24.65" shape-rendering="crispEdges"/><rect fill="#1e1e2e" x="1366.4" y="440.7" width="24.4" height="24.65" shape-rendering="crispEdges"/><rect fill="#1e1e2e" x="1390.8" y="440.7" width="12.2" height="24.65" shape-rendering="crispEdges"/><rect fill="#000000" x="1403" y="440.7" width="24.4" height="24.65" shape-rendering="crispEdges"/><rect fill="#1e1e2e" x="1427.4" y="440.7" width="24.4" height="24.65" shape-rendering="crispEdges"/><rect fill="#1e1e2e" x="1451.8" y="440.7" width="12.2" height="24.65" shape-rendering="crispEdges"/><rect fill="#1e1e2e" x="0" y="465.1" width="12.2" height="24.65" shape-rendering="crispEdges"/><rect fill="#1e1e2e" x="12.2" y="465.1" width="24.4" height="24.65" shape-rendering="crispEdges"/><rect fill="#1e1e2e" x="36.6" y="465.1" width="12.2" height="24.65" shape-rendering="crispEdges"/><rect fill="#1a1a1a" x="48.8" y="465.1" width="85.4" height="24.65" shape-rendering="crispEdges"/><rect fill="#1e1e2e" x="134.2" y="465.1" width="1256.6" height="24.65" shape-rendering="crispEdges"/><rect fill="#1e1e2e" x="1390.8" y="465.1" width="12.2" height="24.65" shape-rendering="crispEdges"/><rect fill="#000000" x="1403" y="465.1" width="24.4" height="24.65" shape-rendering="crispEdges"/><rect fill="#1e1e2e" x="1427.4" y="465.1" width="24.4" height="24.65" shape-rendering="crispEdges"/><rect fill="#1e1e2e" x="1451.8" y="465.1" width="12.2" height="24.65" shape-rendering="crispEdges"/><rect fill="#1e1e2e" x="0" y="489.5" width="12.2" height="24.65" shape-rendering="crispEdges"/><rect fill="#1e1e2e" x="12.2" y="489.5" width="24.4" height="24.65" shape-rendering="crispEdges"/><rect fill="#1e1e2e" x="36.6" y="489.5" width="12.2" height="24.65" shape-rendering="crispEdges"/><rect fill="#1e1e2e" x="48.8" y="489.5" width="1342" height="24.65" shape-rendering="crispEdges"/><rect fill="#1e1e2e" x="1390.8" y="489.5" width="12.2" height="24.65" shape-rendering="crispEdges"/><rect fill="#000000" x="1403" y="489.5" width="24.4" height="24.65" shape-rendering="crispEdges"/><rect fill="#1e1e2e" x="1427.4" y="489.5" width="24.4" height="24.65" shape-rendering="crispEdges"/><rect fill="#1e1e2e" x="1451.8" y="489.5" width="12.2" height="24.65" shape-rendering="crispEdges"/><rect fill="#1e1e2e" x="0" y="513.9" width="12.2" height="24.65" shape-rendering="crispEdges"/><rect fill="#1e1e2e" x="12.2" y="513.9" width="24.4" height="24.65" shape-rendering="crispEdges"/><rect fill="#1e1e2e" x="36.6" y="513.9" width="1366.4" height="24.65" shape-rendering="crispEdges"/><rect fill="#000000" x="1403" y="513.9" width="24.4" height="24.65" shape-rendering="crispEdges"/><rect fill="#1e1e2e" x="1427.4" y="513.9" width="24.4" height="24.65" shape-rendering="crispEdges"/><rect fill="#1e1e2e" x="1451.8" y="513.9" width="12.2" height="24.65" shape-rendering="crispEdges"/><rect fill="#1e1e2e" x="0" y="538.3" width="12.2" height="24.65" shape-rendering="crispEdges"/><rect fill="#1e1e2e" x="12.2" y="538.3" width="24.4" height="24.65" shape-rendering="crispEdges"/><rect fill="#1e1e2e" x="36.6" y="538.3" width="12.2" height="24.65" shape-rendering="crispEdges"/><rect fill="#1e1e2e" x="48.8" y="538.3" width="207.4" height="24.65" shape-rendering="crispEdges"/><rect fill="#1e1e2e" x="256.2" y="538.3" width="1134.6" height="24.65" shape-rendering="crispEdges"/><rect fill="#1e1e2e" x="1390.8" y="538.3" width="12.2" height="24.65" shape-rendering="crispEdges"/><rect fill="#000000" x="1403" y="538.3" width="24.4" height="24.65" shape-rendering="crispEdges"/><rect fill="#1e1e2e" x="1427.4" y="538.3" width="24.4" height="24.65" shape-rendering="crispEdges"/><rect fill="#1e1e2e" x="1451.8" y="538.3" width="12.2" height="24.65" shape-rendering="crispEdges"/><rect fill="#1e1e2e" x="0" y="562.7" width="12.2" height="24.65" shape-rendering="crispEdges"/><rect fill="#1e1e2e" x="12.2" y="562.7" width="24.4" height="24.65" shape-rendering="crispEdges"/><rect fill="#1e1e2e" x="36.6" y="562.7" width="12.2" height="24.65" shape-rendering="crispEdges"/><rect fill="#1e1e2e" x="48.8" y="562.7" width="73.2" height="24.65" shape-rendering="crispEdges"/><rect fill="#1e1e2e" x="122" y="562.7" width="451.4" height="24.65" shape-rendering="crispEdges"/><rect fill="#1e1e2e" x="573.4" y="562.7" width="817.4" height="24.65" shape-rendering="crispEdges"/><rect fill="#1e1e2e" x="1390.8" y="562.7" width="12.2" height="24.65" shape-rendering="crispEdges"/><rect fill="#003054" x="1403" y="562.7" width="24.4" height="24.65" shape-rendering="crispEdges"/><rect fill="#1e1e2e" x="1427.4" y="562.7" width="24.4" height="24.65" shape-rendering="crispEdges"/><rect fill="#1e1e2e" x="1451.8" y="562.7" width="12.2" height="24.65" shape-rendering="crispEdges"/><rect fill="#1e1e2e" x="0" y="587.1" width="12.2" height="24.65" shape-rendering="crispEdges"/><rect fill="#1e1e2e" x="12.2" y="587.1" width="24.4" height="24.65" shape-rendering="crispEdges"/><rect fill="#1e1e2e" x="36.6" y="587.1" width="12.2" height="24.65" shape-rendering="crispEdges"/><rect fill="#1e1e2e" x="48.8" y="587.1" width="902.8" height="24.65" shape-rendering="crispEdges"/><rect fill="#1e1e2e" x="951.6" y="587.1" width="439.2" height="24.65" shape-rendering="crispEdges"/><rect fill="#1e1e2e" x="1390.8" y="587.1" width="12.2" height="24.65" shape-rendering="crispEdges"/><rect fill="#003054" x="1403" y="587.1" width="24.4" height="24.65" shape-rendering="crispEdges"/><rect fill="#1e1e2e" x="1427.4" y="587.1" width="24.4" height="24.65" shape-rendering="crispEdges"/><rect fill="#1e1e2e" x="1451.8" y="587.1" width="12.2" height="24.65" shape-rendering="crispEdges"/><rect fill="#1e1e2e" x="0" y="611.5" width="12.2" height="24.65" shape-rendering="crispEdges"/><rect fill="#1e1e2e" x="12.2" y="611.5" width="24.4" height="24.65" shape-rendering="crispEdges"/><rect fill="#1e1e2e" x="36.6" y="611.5" width="12.2" height="24.65" shape-rendering="crispEdges"/><rect fill="#1e1e2e" x="48.8" y="611.5" width="73.2" height="24.65" shape-rendering="crispEdges"/><rect fill="#1e1e2e" x="122" y="611.5" width="719.8" height="24.65" shape-rendering="crispEdges"/><rect fill="#1e1e2e" x="841.8" y="611.5" width="549" height="24.65" shape-rendering="crispEdges"/><rect fill="#1e1e2e" x="1390.8" y="611.5" width="12.2" height="24.65" shape-rendering="crispEdges"/><rect fill="#003054" x="1403" y="611.5" width="24.4" height="24.65" shape-rendering="crispEdges"/><rect fill="#1e1e2e" x="1427.4" y="611.5" width="24.4" height="24.65" shape-rendering="crispEdges"/><rect fill="#1e1e2e" x="1451.8" y="611.5" width="12.2" height="24.65" shape-rendering="crispEdges"/><rect fill="#1e1e2e" x="0" y="635.9" width="12.2" height="24.65" shape-rendering="crispEdges"/><rect fill="#1e1e2e" x="12.2" y="635.9" width="24.4" height="24.65" shape-rendering="crispEdges"/><rect fill="#1e1e2e" x="36.6" y="635.9" width="12.2" height="24.65" shape-rendering="crispEdges"/><rect fill="#1e1e2e" x="48.8" y="635.9" width="512.4" height="24.65" shape-rendering="crispEdges"/><rect fill="#1e1e2e" x="561.2" y="635.9" width="829.6" height="24.65" shape-rendering="crispEdges"/><rect fill="#1e1e2e" x="1390.8" y="635.9" width="12.2" height="24.65" shape-rendering="crispEdges"/><rect fill="#000000" x="1403" y="635.9" width="24.4" height="24.65" shape-rendering="crispEdges"/><rect fill="#1e1e2e" x="1427.4" y="635.9" width="24.4" height="24.65" shape-rendering="crispEdges"/><rect fill="#1e1e2e" x="1451.8" y="635.9" width="12.2" height="24.65" shape-rendering="crispEdges"/><rect fill="#1e1e2e" x="0" y="660.3" width="12.2" height="24.65" shape-rendering="crispEdges"/><rect fill="#1e1e2e" x="12.2" y="660.3" width="1439.6" height="24.65" shape-rendering="crispEdges"/><rect fill="#1e1e2e" x="1451.8" y="660.3" width="12.2" height="24.65" shape-rendering="crispEdges"/><rect fill="#1e1e2e" x="0" y="684.7" width="12.2" height="24.65" shape-rendering="crispEdges"/><rect fill="#1e1e2e" x="12.2" y="684.7" width="1439.6" height="24.65" shape-rendering="crispEdges"/><rect fill="#1e1e2e" x="1451.8" y="684.7" width="12.2" height="24.65" shape-rendering="crispEdges"/><rect fill="#1e1e2e" x="0" y="709.1" width="12.2" height="24.65" shape-rendering="crispEdges"/><rect fill="#1e1e2e" x="12.2" y="709.1" width="0" height="24.65" shape-rendering="crispEdges"/><rect fill="#1e1e2e" x="12.2" y="709.1" width="1439.6" height="24.65" shape-rendering="crispEdges"/><rect fill="#1e1e2e" x="1451.8" y="709.1" width="12.2" height="24.65" shape-rendering="crispEdges"/><rect fill="#1a2535" x="0" y="733.5" width="1464" height="24.65" shape-rendering="crispEdges"/><rect fill="#1a2535" x="0" y="757.9" width="12.2" height="24.65" shape-rendering="crispEdges"/><rect fill="#1a2535" x="12.2" y="757.9" width="0" height="24.65" shape-rendering="crispEdges"/><rect fill="#1a2535" x="12.2" y="757.9" width="1439.6" height="24.65" shape-rendering="crispEdges"/><rect fill="#1a2535" x="1451.8" y="757.9" width="12.2" height="24.65" shape-rendering="crispEdges"/><rect fill="#1a2535" x="0" y="782.3" width="12.2" height="24.65" shape-rendering="crispEdges"/><rect fill="#232e3d" x="12.2" y="782.3" width="24.4" height="24.65" shape-rendering="crispEdges"/><rect fill="#e0e0e0" x="36.6" y="782.3" width="12.2" height="24.65" shape-rendering="crispEdges"/><rect fill="#232e3d" x="48.8" y="782.3" width="451.4" height="24.65" shape-rendering="crispEdges"/><rect fill="#232e3d" x="500.2" y="782.3" width="927.2" height="24.65" shape-rendering="crispEdges"/><rect fill="#232e3d" x="1427.4" y="782.3" width="24.4" height="24.65" shape-rendering="crispEdges"/><rect fill="#1a2535" x="1451.8" y="782.3" width="12.2" height="24.65" shape-rendering="crispEdges"/><rect fill="#1a2535" x="0" y="806.7" width="12.2" height="24.65" shape-rendering="crispEdges"/><rect fill="#232e3d" x="12.2" y="806.7" width="24.4" height="24.65" shape-rendering="crispEdges"/><rect fill="#232e3d" x="36.6" y="806.7" width="1390.8" height="24.65" shape-rendering="crispEdges"/><rect fill="#232e3d" x="1427.4" y="806.7" width="24.4" height="24.65" shape-rendering="crispEdges"/><rect fill="#1a2535" x="1451.8" y="806.7" width="12.2" height="24.65" shape-rendering="crispEdges"/><rect fill="#1a2535" x="0" y="831.1" width="12.2" height="24.65" shape-rendering="crispEdges"/><rect fill="#232e3d" x="12.2" y="831.1" width="24.4" height="24.65" shape-rendering="crispEdges"/><rect fill="#232e3d" x="36.6" y="831.1" width="1390.8" height="24.65" shape-rendering="crispEdges"/><rect fill="#232e3d" x="1427.4" y="831.1" width="24.4" height="24.65" shape-rendering="crispEdges"/><rect fill="#1a2535" x="1451.8" y="831.1" width="12.2" height="24.65" shape-rendering="crispEdges"/><rect fill="#333345" x="0" y="855.5" width="12.2" height="24.65" shape-rendering="crispEdges"/><rect fill="#333345" x="12.2" y="855.5" width="12.2" height="24.65" shape-rendering="crispEdges"/><rect fill="#333345" x="24.4" y="855.5" width="85.4" height="24.65" shape-rendering="crispEdges"/><rect fill="#333345" x="109.8" y="855.5" width="122" height="24.65" shape-rendering="crispEdges"/><rect fill="#333345" x="231.8" y="855.5" width="36.6" height="24.65" shape-rendering="crispEdges"/><rect fill="#333345" x="268.4" y="855.5" width="97.6" height="24.65" shape-rendering="crispEdges"/><rect fill="#333345" x="366" y="855.5" width="24.4" height="24.65" shape-rendering="crispEdges"/><rect fill="#333345" x="390.4" y="855.5" width="36.6" height="24.65" shape-rendering="crispEdges"/><rect fill="#333345" x="427" y="855.5" width="109.8" height="24.65" shape-rendering="crispEdges"/><rect fill="#333345" x="536.8" y="855.5" width="24.4" height="24.65" shape-rendering="crispEdges"/><rect fill="#333345" x="561.2" y="855.5" width="36.6" height="24.65" shape-rendering="crispEdges"/><rect fill="#333345" x="597.8" y="855.5" width="85.4" height="24.65" shape-rendering="crispEdges"/><rect fill="#333345" x="683.2" y="855.5" width="24.4" height="24.65" shape-rendering="crispEdges"/><rect fill="#333345" x="707.6" y="855.5" width="744.2" height="24.65" shape-rendering="crispEdges"/><rect fill="#333345" x="1451.8" y="855.5" width="12.2" height="24.65" shape-rendering="crispEdges"/>
    <g class="terminal-2174389706-matrix">
    <text class="terminal-2174389706-r1" x="1464" y="20" textLength="12.2" clip-path="url(#terminal-2174389706-line-0)">
</text><text class="terminal-2174389706-r3" x="439.2" y="44.4" textLength="585.6" clip-path="url(#terminal-2174389706-line-1)">&#160;&#160;██████╗&#160;&#160;██╗&#160;&#160;&#160;██╗████████╗██╗&#160;&#160;██╗██╗&#160;█████╗&#160;</text><text class="terminal-2174389706-r1" x="1464" y="44.4" textLength="12.2" clip-path="url(#terminal-2174389706-line-1)">
</text><text class="terminal-2174389706-r4" x="439.2" y="68.8" textLength="585.6" clip-path="url(#terminal-2174389706-line-2)">&#160;&#160;██╔══██╗&#160;╚██╗&#160;██╔╝╚══██╔══╝██║&#160;&#160;██║██║██╔══██╗</text><text class="terminal-2174389706-r1" x="1464" y="68.8" textLength="12.2" clip-path="url(#terminal-2174389706-line-2)">
</text><text class="terminal-2174389706-r5" x="439.2" y="93.2" textLength="585.6" clip-path="url(#terminal-2174389706-line-3)">&#160;&#160;██████╔╝&#160;&#160;╚████╔╝&#160;&#160;&#160;&#160;██║&#160;&#160;&#160;███████║██║███████║</text><text class="terminal-2174389706-r1" x="1464" y="93.2" textLength="12.2" clip-path="url(#terminal-2174389706-line-3)">
</text><text class="terminal-2174389706-r6" x="439.2" y="117.6" textLength="585.6" clip-path="url(#terminal-2174389706-line-4)">&#160;&#160;██╔═══╝&#160;&#160;&#160;&#160;╚██╔╝&#160;&#160;&#160;&#160;&#160;██║&#160;&#160;&#160;██╔══██║██║██╔══██║</text><text class="terminal-2174389706-r1" x="1464" y="117.6" textLength="12.2" clip-path="url(#terminal-2174389706-line-4)">
</text><text class="terminal-2174389706-r7" x="439.2" y="142" textLength="585.6" clip-path="url(#terminal-2174389706-line-5)">&#160;&#160;██║&#160;&#160;&#160;&#160;&#160;&#160;&#160;&#160;&#160;██║&#160;&#160;&#160;&#160;&#160;&#160;██║&#160;&#160;&#160;██║&#160;&#160;██║██║██║&#160;&#160;██║</text><text class="terminal-2174389706-r1" x="1464" y="142" textLength="12.2" clip-path="url(#terminal-2174389706-line-5)">
</text><text class="terminal-2174389706-r8" x="439.2" y="166.4" textLength="585.6" clip-path="url(#terminal-2174389706-line-6)">&#160;&#160;╚═╝&#160;&#160;&#160;&#160;&#160;&#160;&#160;&#160;&#160;╚═╝&#160;&#160;&#160;&#160;&#160;&#160;╚═╝&#160;&#160;&#160;╚═╝&#160;&#160;╚═╝╚═╝╚═╝&#160;&#160;╚═╝</text><text class="terminal-2174389706-r1" x="1464" y="166.4" textLength="12.2" clip-path="url(#terminal-2174389706-line-6)">
</text><text class="terminal-2174389706-r1" x="1464" y="190.8" textLength="12.2" clip-path="url(#terminal-2174389706-line-7)">
</text><text class="terminal-2174389706-r9" x="439.2" y="215.2" textLength="244" clip-path="url(#terminal-2174389706-line-8)">&#160;&#160;The&#160;Oracle&#160;Answers</text><text class="terminal-2174389706-r1" x="1464" y="215.2" textLength="12.2" clip-path="url(#terminal-2174389706-line-8)">
</text><text class="terminal-2174389706-r1" x="1464" y="239.6" textLength="12.2" clip-path="url(#terminal-2174389706-line-9)">
</text><text class="terminal-2174389706-r1" x="1464" y="264" textLength="12.2" clip-path="url(#terminal-2174389706-line-10)">
</text><text class="terminal-2174389706-r1" x="1464" y="288.4" textLength="12.2" clip-path="url(#terminal-2174389706-line-11)">
</text><text class="terminal-2174389706-r9" x="0" y="312.8" textLength="12.2" clip-path="url(#terminal-2174389706-line-12)">┌</text><text class="terminal-2174389706-r9" x="12.2" y="312.8" textLength="1439.6" clip-path="url(#terminal-2174389706-line-12)">──────────────────────────────────────────────────────────────────────────────────────────────────────────────────────</text><text class="terminal-2174389706-r9" x="1451.8" y="312.8" textLength="12.2" clip-path="url(#terminal-2174389706-line-12)">┐</text><text class="terminal-2174389706-r1" x="1464" y="312.8" textLength="12.2" clip-path="url(#terminal-2174389706-line-12)">
</text><text class="terminal-2174389706-r9" x="0" y="337.2" textLength="12.2" clip-path="url(#terminal-2174389706-line-13)">│</text><text class="terminal-2174389706-r9" x="1451.8" y="337.2" textLength="12.2" clip-path="url(#terminal-2174389706-line-13)">│</text><text class="terminal-2174389706-r1" x="1464" y="337.2" textLength="12.2" clip-path="url(#terminal-2174389706-line-13)">
</text><text class="terminal-2174389706-r9" x="0" y="361.6" textLength="12.2" clip-path="url(#terminal-2174389706-line-14)">│</text><text class="terminal-2174389706-r10" x="48.8" y="361.6" textLength="97.6" clip-path="url(#terminal-2174389706-line-14)">pgvector</text><text class="terminal-2174389706-r2" x="146.4" y="361.6" textLength="1244.4" clip-path="url(#terminal-2174389706-line-14)">&#160;is&#160;a&#160;PostgreSQL&#160;extension&#160;that&#160;adds&#160;vector&#160;columns&#160;and&#160;approximate&#160;nearest&#160;neighbor&#160;search.&#160;It&#x27;s&#160;&#160;&#160;&#160;&#160;</text><text class="terminal-2174389706-r9" x="1451.8" y="361.6" textLength="12.2" clip-path="url(#terminal-2174389706-line-14)">│</text><text class="terminal-2174389706-r1" x="1464" y="361.6" textLength="12.2" clip-path="url(#terminal-2174389706-line-14)">
</text><text class="terminal-2174389706-r9" x="0" y="386" textLength="12.2" clip-path="url(#terminal-2174389706-line-15)">│</text><text class="terminal-2174389706-r2" x="48.8" y="386" textLength="1342" clip-path="url(#terminal-2174389706-line-15)">simpler&#160;to&#160;set&#160;up,&#160;has&#160;strong&#160;community&#160;adoption,&#160;and&#160;integrates&#160;well&#160;with&#160;the&#160;Postgres&#160;ecosystem.&#160;HNSW&#160;&#160;&#160;&#160;&#160;&#160;&#160;</text><text class="terminal-2174389706-r9" x="1451.8" y="386" textLength="12.2" clip-path="url(#terminal-2174389706-line-15)">│</text><text class="terminal-2174389706-r1" x="1464" y="386" textLength="12.2" clip-path="url(#terminal-2174389706-line-15)">
</text><text class="terminal-2174389706-r9" x="0" y="410.4" textLength="12.2" clip-path="url(#terminal-2174389706-line-16)">│</text><text class="terminal-2174389706-r2" x="48.8" y="410.4" textLength="1342" clip-path="url(#terminal-2174389706-line-16)">indexing&#160;was&#160;added&#160;in&#160;0.5.0&#160;[2].&#160;&#160;&#160;&#160;&#160;&#160;&#160;&#160;&#160;&#160;&#160;&#160;&#160;&#160;&#160;&#160;&#160;&#160;&#160;&#160;&#160;&#160;&#160;&#160;&#160;&#160;&#160;&#160;&#160;&#160;&#160;&#160;&#160;&#160;&#160;&#160;&#160;&#160;&#160;&#160;&#160;&#160;&#160;&#160;&#160;&#160;&#160;&#160;&#160;&#160;&#160;&#160;&#160;&#160;&#160;&#160;&#160;&#160;&#160;&#160;&#160;&#160;&#160;&#160;&#160;&#160;&#160;&#160;&#160;&#160;&#160;&#160;&#160;&#160;&#160;&#160;&#160;&#160;</text><text class="terminal-2174389706-r9" x="1451.8" y="410.4" textLength="12.2" clip-path="url(#terminal-2174389706-line-16)">│</text><text class="terminal-2174389706-r1" x="1464" y="410.4" textLength="12.2" clip-path="url(#terminal-2174389706-line-16)">
</text><text class="terminal-2174389706-r9" x="0" y="434.8" textLength="12.2" clip-path="url(#terminal-2174389706-line-17)">│</text><text class="terminal-2174389706-r9" x="1451.8" y="434.8" textLength="12.2" clip-path="url(#terminal-2174389706-line-17)">│</text><text class="terminal-2174389706-r1" x="1464" y="434.8" textLength="12.2" clip-path="url(#terminal-2174389706-line-17)">
</text><text class="terminal-2174389706-r9" x="0" y="459.2" textLength="12.2" clip-path="url(#terminal-2174389706-line-18)">│</text><text class="terminal-2174389706-r2" x="48.8" y="459.2" textLength="963.8" clip-path="url(#terminal-2174389706-line-18)">The&#160;key&#160;differentiator:&#160;Oracle&#x27;s&#160;in-database&#160;ONNX&#160;embedding&#160;means&#160;you&#160;can&#160;call&#160;</text><text class="terminal-2174389706-r11" x="1012.6" y="459.2" textLength="353.8" clip-path="url(#terminal-2174389706-line-18)">VECTOR_EMBEDDING(model&#160;USING&#160;</text><text class="terminal-2174389706-r9" x="1451.8" y="459.2" textLength="12.2" clip-path="url(#terminal-2174389706-line-18)">│</text><text class="terminal-2174389706-r1" x="1464" y="459.2" textLength="12.2" clip-path="url(#terminal-2174389706-line-18)">
</text><text class="terminal-2174389706-r9" x="0" y="483.6" textLength="12.2" clip-path="url(#terminal-2174389706-line-19)">│</text><text class="terminal-2174389706-r11" x="48.8" y="483.6" textLength="85.4" clip-path="url(#terminal-2174389706-line-19)">&#x27;text&#x27;)</text><text class="terminal-2174389706-r2" x="134.2" y="483.6" textLength="1256.6" clip-path="url(#terminal-2174389706-line-19)">&#160;in&#160;SQL.&#160;With&#160;pgvector,&#160;you&#160;generate&#160;embeddings&#160;externally&#160;and&#160;store&#160;them.&#160;For&#160;high-security&#160;&#160;&#160;&#160;&#160;&#160;&#160;&#160;&#160;&#160;&#160;</text><text class="terminal-2174389706-r9" x="1451.8" y="483.6" textLength="12.2" clip-path="url(#terminal-2174389706-line-19)">│</text><text class="terminal-2174389706-r1" x="1464" y="483.6" textLength="12.2" clip-path="url(#terminal-2174389706-line-19)">
</text><text class="terminal-2174389706-r9" x="0" y="508" textLength="12.2" clip-path="url(#terminal-2174389706-line-20)">│</text><text class="terminal-2174389706-r2" x="48.8" y="508" textLength="1342" clip-path="url(#terminal-2174389706-line-20)">environments&#160;where&#160;data&#160;can&#x27;t&#160;leave&#160;the&#160;DB,&#160;Oracle&#160;wins&#160;[3].&#160;&#160;&#160;&#160;&#160;&#160;&#160;&#160;&#160;&#160;&#160;&#160;&#160;&#160;&#160;&#160;&#160;&#160;&#160;&#160;&#160;&#160;&#160;&#160;&#160;&#160;&#160;&#160;&#160;&#160;&#160;&#160;&#160;&#160;&#160;&#160;&#160;&#160;&#160;&#160;&#160;&#160;&#160;&#160;&#160;&#160;&#160;&#160;&#160;&#160;</text><text class="terminal-2174389706-r9" x="1451.8" y="508" textLength="12.2" clip-path="url(#terminal-2174389706-line-20)">│</text><text class="terminal-2174389706-r1" x="1464" y="508" textLength="12.2" clip-path="url(#terminal-2174389706-line-20)">
</text><text class="terminal-2174389706-r9" x="0" y="532.4" textLength="12.2" clip-path="url(#terminal-2174389706-line-21)">│</text><text class="terminal-2174389706-r9" x="1451.8" y="532.4" textLength="12.2" clip-path="url(#terminal-2174389706-line-21)">│</text><text class="terminal-2174389706-r1" x="1464" y="532.4" textLength="12.2" clip-path="url(#terminal-2174389706-line-21)">
</text><text class="terminal-2174389706-r9" x="0" y="556.8" textLength="12.2" clip-path="url(#terminal-2174389706-line-22)">│</text><text class="terminal-2174389706-r12" x="48.8" y="556.8" textLength="207.4" clip-path="url(#terminal-2174389706-line-22)">&#160;&#160;───&#160;Sources&#160;───</text><text class="terminal-2174389706-r13" x="1403" y="556.8" textLength="24.4" clip-path="url(#terminal-2174389706-line-22)">▆▆</text><text class="terminal-2174389706-r9" x="1451.8" y="556.8" textLength="12.2" clip-path="url(#terminal-2174389706-line-22)">│</text><text class="terminal-2174389706-r1" x="1464" y="556.8" textLength="12.2" clip-path="url(#terminal-2174389706-line-22)">
</text><text class="terminal-2174389706-r9" x="0" y="581.2" textLength="12.2" clip-path="url(#terminal-2174389706-line-23)">│</text><text class="terminal-2174389706-r14" x="48.8" y="581.2" textLength="73.2" clip-path="url(#terminal-2174389706-line-23)">&#160;&#160;[1]&#160;</text><text class="terminal-2174389706-r2" x="122" y="581.2" textLength="451.4" clip-path="url(#terminal-2174389706-line-23)">Oracle&#160;AI&#160;Vector&#160;Search&#160;Documentation</text><text class="terminal-2174389706-r9" x="1451.8" y="581.2" textLength="12.2" clip-path="url(#terminal-2174389706-line-23)">│</text><text class="terminal-2174389706-r1" x="1464" y="581.2" textLength="12.2" clip-path="url(#terminal-2174389706-line-23)">
</text><text class="terminal-2174389706-r9" x="0" y="605.6" textLength="12.2" clip-path="url(#terminal-2174389706-line-24)">│</text><text class="terminal-2174389706-r16" x="48.8" y="605.6" textLength="902.8" clip-path="url(#terminal-2174389706-line-24)">&#160;&#160;&#160;&#160;&#160;&#160;https://docs.oracle.com/en/database/oracle/oracle-database/23/vecse/</text><text class="terminal-2174389706-r9" x="1451.8" y="605.6" textLength="12.2" clip-path="url(#terminal-2174389706-line-24)">│</text><text class="terminal-2174389706-r1" x="1464" y="605.6" textLength="12.2" clip-path="url(#terminal-2174389706-line-24)">
</text><text class="terminal-2174389706-r9" x="0" y="630" textLength="12.2" clip-path="url(#terminal-2174389706-line-25)">│</text><text class="terminal-2174389706-r14" x="48.8" y="630" textLength="73.2" clip-path="url(#terminal-2174389706-line-25)">&#160;&#160;[2]&#160;</text><text class="terminal-2174389706-r2" x="122" y="630" textLength="719.8" clip-path="url(#terminal-2174389706-line-25)">pgvector:&#160;Open-source&#160;vector&#160;similarity&#160;search&#160;for&#160;Postgres</text><text class="terminal-2174389706-r17" x="1403" y="630" textLength="24.4" clip-path="url(#terminal-2174389706-line-25)">▃▃</text><text class="terminal-2174389706-r9" x="1451.8" y="630" textLength="12.2" clip-path="url(#terminal-2174389706-line-25)">│</text><text class="terminal-2174389706-r1" x="1464" y="630" textLength="12.2" clip-path="url(#terminal-2174389706-line-25)">
</text><text class="terminal-2174389706-r9" x="0" y="654.4" textLength="12.2" clip-path="url(#terminal-2174389706-line-26)">│</text><text class="terminal-2174389706-r16" x="48.8" y="654.4" textLength="512.4" clip-path="url(#terminal-2174389706-line-26)">&#160;&#160;&#160;&#160;&#160;&#160;https://github.com/pgvector/pgvector</text><text class="terminal-2174389706-r9" x="1451.8" y="654.4" textLength="12.2" clip-path="url(#terminal-2174389706-line-26)">│</text><text class="terminal-2174389706-r1" x="1464" y="654.4" textLength="12.2" clip-path="url(#terminal-2174389706-line-26)">
</text><text class="terminal-2174389706-r9" x="0" y="678.8" textLength="12.2" clip-path="url(#terminal-2174389706-line-27)">│</text><text class="terminal-2174389706-r9" x="1451.8" y="678.8" textLength="12.2" clip-path="url(#terminal-2174389706-line-27)">│</text><text class="terminal-2174389706-r1" x="1464" y="678.8" textLength="12.2" clip-path="url(#terminal-2174389706-line-27)">
</text><text class="terminal-2174389706-r9" x="0" y="703.2" textLength="12.2" clip-path="url(#terminal-2174389706-line-28)">└</text><text class="terminal-2174389706-r9" x="12.2" y="703.2" textLength="1439.6" clip-path="url(#terminal-2174389706-line-28)">──────────────────────────────────────────────────────────────────────────────────────────────────────────────────────</text><text class="terminal-2174389706-r9" x="1451.8" y="703.2" textLength="12.2" clip-path="url(#terminal-2174389706-line-28)">┘</text><text class="terminal-2174389706-r1" x="1464" y="703.2" textLength="12.2" clip-path="url(#terminal-2174389706-line-28)">
</text><text class="terminal-2174389706-r1" x="1464" y="727.6" textLength="12.2" clip-path="url(#terminal-2174389706-line-29)">
</text><text class="terminal-2174389706-r9" x="0" y="752" textLength="1464" clip-path="url(#terminal-2174389706-line-30)">────────────────────────────────────────────────────────────────────────────────────────────────────────────────────────</text><text class="terminal-2174389706-r1" x="1464" y="752" textLength="12.2" clip-path="url(#terminal-2174389706-line-30)">
</text><text class="terminal-2174389706-r1" x="1464" y="776.4" textLength="12.2" clip-path="url(#terminal-2174389706-line-31)">
</text><text class="terminal-2174389706-r18" x="36.6" y="800.8" textLength="12.2" clip-path="url(#terminal-2174389706-line-32)">A</text><text class="terminal-2174389706-r19" x="48.8" y="800.8" textLength="451.4" clip-path="url(#terminal-2174389706-line-32)">sk&#160;anything...&#160;(!!&#160;deep,&#160;??&#160;research)</text><text class="terminal-2174389706-r1" x="1464" y="800.8" textLength="12.2" clip-path="url(#terminal-2174389706-line-32)">
</text><text class="terminal-2174389706-r1" x="1464" y="825.2" textLength="12.2" clip-path="url(#terminal-2174389706-line-33)">
</text><text class="terminal-2174389706-r1" x="1464" y="849.6" textLength="12.2" clip-path="url(#terminal-2174389706-line-34)">
</text><text class="terminal-2174389706-r16" x="24.4" y="874" textLength="85.4" clip-path="url(#terminal-2174389706-line-35)">Model:&#160;</text><text class="terminal-2174389706-r3" x="109.8" y="874" textLength="122" clip-path="url(#terminal-2174389706-line-35)">qwen3.5:9b</text><text class="terminal-2174389706-r16" x="231.8" y="874" textLength="36.6" clip-path="url(#terminal-2174389706-line-35)">&#160;│&#160;</text><text class="terminal-2174389706-r16" x="268.4" y="874" textLength="97.6" clip-path="url(#terminal-2174389706-line-35)">Oracle:&#160;</text><text class="terminal-2174389706-r21" x="366" y="874" textLength="24.4" clip-path="url(#terminal-2174389706-line-35)">●&#160;</text><text class="terminal-2174389706-r16" x="390.4" y="874" textLength="36.6" clip-path="url(#terminal-2174389706-line-35)">&#160;│&#160;</text><text class="terminal-2174389706-r16" x="427" y="874" textLength="109.8" clip-path="url(#terminal-2174389706-line-35)">SearXNG:&#160;</text><text class="terminal-2174389706-r21" x="536.8" y="874" textLength="24.4" clip-path="url(#terminal-2174389706-line-35)">●&#160;</text><text class="terminal-2174389706-r16" x="561.2" y="874" textLength="36.6" clip-path="url(#terminal-2174389706-line-35)">&#160;│&#160;</text><text class="terminal-2174389706-r16" x="597.8" y="874" textLength="85.4" clip-path="url(#terminal-2174389706-line-35)">Cache:&#160;</text><text class="terminal-2174389706-r22" x="683.2" y="874" textLength="24.4" clip-path="url(#terminal-2174389706-line-35)">42</text>
    </g>
    </g>
</svg>
